<?xml version="1.0" standalone="no"?>
<!DOCTYPE svg PUBLIC "-//W3C//DTD SVG 1.1//EN" "http://www.w3.org/Graphics/SVG/1.1/DTD/svg11.dtd" >
<svg xmlns="http://www.w3.org/2000/svg">
<metadata>Generated by IcoMoon</metadata>
<defs>
<font id="icomoon" horiz-adv-x="1024">
<font-face units-per-em="1024" ascent="960" descent="-64" />
<missing-glyph horiz-adv-x="1024" />
<glyph unicode="&#x20;" horiz-adv-x="512" d="" />
<glyph unicode="&#xe900;" glyph-name="gridicons-add-image" d="M981.333 789.333v-85.333h-128v-128h-85.333v128h-128v85.333h128v128h85.333v-128h128zM618.667 490.667c35.328 0 64 28.672 64 64s-28.672 64-64 64-64-28.672-64-64 28.672-64 64-64zM768 352.683l-21.888 24.32c-33.877 37.76-93.056 37.76-126.976 0l-27.989-31.189-207.147 230.187-128-142.208v270.208h298.667v85.333h-298.667c-47.147 0-85.333-38.187-85.333-85.333v-512c0-47.147 38.187-85.333 85.333-85.333h512c47.147 0 85.333 38.187 85.333 85.333v298.667h-85.333v-137.984z" />
<glyph unicode="&#xe901;" glyph-name="gridicons-add-outline" d="M512 789.333c188.203 0 341.333-153.131 341.333-341.333s-153.131-341.333-341.333-341.333-341.333 153.131-341.333 341.333 153.131 341.333 341.333 341.333zM512 874.667c-235.648 0-426.667-191.019-426.667-426.667s191.019-426.667 426.667-426.667 426.667 191.019 426.667 426.667-191.019 426.667-426.667 426.667v0zM725.333 490.667h-170.667v170.667h-85.333v-170.667h-170.667v-85.333h170.667v-170.667h85.333v170.667h170.667v85.333z" />
<glyph unicode="&#xe902;" glyph-name="gridicons-add" d="M512 874.667c-235.648 0-426.667-191.019-426.667-426.667s191.019-426.667 426.667-426.667 426.667 191.019 426.667 426.667c0 235.648-191.019 426.667-426.667 426.667zM725.333 405.333h-170.667v-170.667h-85.333v170.667h-170.667v85.333h170.667v170.667h85.333v-170.667h170.667v-85.333z" />
<glyph unicode="&#xe903;" glyph-name="gridicons-align-center" d="M170.667 149.333h682.667v85.333h-682.667v-85.333zM725.333 405.333h-426.667v-85.333h426.667v85.333zM170.667 576v-85.333h682.667v85.333h-682.667zM725.333 746.667h-426.667v-85.333h426.667v85.333z" />
<glyph unicode="&#xe904;" glyph-name="gridicons-align-image-center" d="M128 746.667h768v-85.333h-768v85.333zM128 149.333h768v85.333h-768v-85.333zM341.333 320h341.333v256h-341.333v-256z" />
<glyph unicode="&#xe905;" glyph-name="gridicons-align-image-left" d="M128 746.667h768v-85.333h-768v85.333zM128 149.333h768v85.333h-768v-85.333zM128 320h341.333v256h-341.333v-256zM554.667 320h341.333v85.333h-341.333v-85.333zM554.667 490.667h341.333v85.333h-341.333v-85.333z" />
<glyph unicode="&#xe906;" glyph-name="gridicons-align-image-none" d="M896 661.333h-768v85.333h768v-85.333zM896 234.667h-768v-85.333h768v85.333zM469.333 576h-341.333v-256h341.333v256z" />
<glyph unicode="&#xe907;" glyph-name="gridicons-align-image-right" d="M896 661.333h-768v85.333h768v-85.333zM896 234.667h-768v-85.333h768v85.333zM896 576h-341.333v-256h341.333v256zM469.333 405.333h-341.333v-85.333h341.333v85.333zM469.333 576h-341.333v-85.333h341.333v85.333z" />
<glyph unicode="&#xe908;" glyph-name="gridicons-align-justify" d="M170.667 149.333h682.667v85.333h-682.667v-85.333zM853.333 405.333h-682.667v-85.333h682.667v85.333zM170.667 576v-85.333h682.667v85.333h-682.667zM853.333 746.667h-682.667v-85.333h682.667v85.333z" />
<glyph unicode="&#xe909;" glyph-name="gridicons-align-left" d="M170.667 149.333h682.667v85.333h-682.667v-85.333zM597.333 405.333h-426.667v-85.333h426.667v85.333zM170.667 576v-85.333h682.667v85.333h-682.667zM597.333 746.667h-426.667v-85.333h426.667v85.333z" />
<glyph unicode="&#xe90a;" glyph-name="gridicons-align-right" d="M853.333 234.667h-682.667v-85.333h682.667v85.333zM426.667 320h426.667v85.333h-426.667v-85.333zM170.667 576v-85.333h682.667v85.333h-682.667zM426.667 661.333h426.667v85.333h-426.667v-85.333z" />
<glyph unicode="&#xe90b;" glyph-name="gridicons-arrow-down" d="M469.333 789.333v-519.253l-238.507 238.507-60.16-60.587 341.333-341.333 341.333 341.333-60.16 60.16-238.507-238.080v519.253h-85.333z" />
<glyph unicode="&#xe90c;" glyph-name="gridicons-arrow-left" d="M853.333 490.667h-519.253l238.507 238.507-60.587 60.16-341.333-341.333 341.333-341.333 60.16 60.16-238.080 238.507h519.253v85.333z" />
<glyph unicode="&#xe90d;" glyph-name="gridicons-arrow-right" d="M512 789.333l-60.16-60.16 238.080-238.507h-519.253v-85.333h519.253l-238.080-238.507 60.16-60.16 341.333 341.333-341.333 341.333z" />
<glyph unicode="&#xe90e;" glyph-name="gridicons-arrow-up" d="M554.667 106.667v519.253l238.507-238.507 60.16 60.587-341.333 341.333-341.333-341.333 60.16-60.16 238.507 238.080v-519.253h85.333z" />
<glyph unicode="&#xe90f;" glyph-name="gridicons-aside" d="M597.333 106.667l256 256v341.333c0 47.147-38.187 85.333-85.333 85.333h-512c-47.147 0-85.333-38.187-85.333-85.333v-512c0-47.147 38.187-85.333 85.333-85.333h341.333zM256 704h512v-256h-170.667c-47.147 0-85.333-38.187-85.333-85.333v-170.667h-256v512zM682.667 533.333h-341.333v85.333h341.333v-85.333z" />
<glyph unicode="&#xe910;" glyph-name="gridicons-attachment" d="M597.333 917.333c-117.845 0-213.333-95.488-213.333-213.333v-426.667c0-70.699 57.301-128 128-128s127.573 57.301 127.573 128v426.667h-84.907v-426.667c0-23.595-19.072-42.667-42.667-42.667s-42.667 19.072-42.667 42.667v426.667c0 70.699 57.301 128 128 128s128-57.301 128-128v-432c0-117.845-95.488-208-213.333-208s-213.333 95.488-213.333 213.333v213.333h-85.333v-213.333c0-164.949 133.717-298.667 298.667-298.667s298.24 133.717 298.24 298.667v426.667c0 117.845-95.061 213.333-212.907 213.333z" />
<glyph unicode="&#xe911;" glyph-name="gridicons-audio" d="M341.333 789.333v-434.517c-13.397 4.779-27.605 7.851-42.667 7.851-70.699 0-128-57.301-128-128s57.301-128 128-128 128 57.301 128 128v426.667h298.667v-178.517c-13.397 4.779-27.605 7.851-42.667 7.851-70.699 0-128-57.301-128-128s57.301-128 128-128 128 57.301 128 128v426.667h-469.333z" />
<glyph unicode="&#xe912;" glyph-name="gridicons-bell" d="M261.973 321.323l120.661-120.661c-15.445-15.445-36.779-25.003-60.331-25.003-47.147 0-85.333 38.187-85.333 85.333 0.043 23.552 9.557 44.885 25.003 60.331zM640.299 94.123l-30.123-30.123-482.176 482.176 30.123 30.123 47.019-6.699c32.171-4.608 72.064 5.205 88.619 21.76l165.76 165.717c99.84 99.84 261.76 99.84 361.6 0s99.84-261.76 0-361.6l-165.76-165.76c-16.555-16.555-26.368-56.448-21.76-88.619l6.699-46.976z" />
<glyph unicode="&#xe913;" glyph-name="gridicons-block" d="M512 874.667c-235.648 0-426.667-191.019-426.667-426.667s191.019-426.667 426.667-426.667c235.648 0 426.667 191.019 426.667 426.667s-191.019 426.667-426.667 426.667zM170.667 448c0 188.501 152.832 341.333 341.333 341.333 78.848 0 151.253-27.008 209.067-71.936l-478.464-478.464c-44.928 57.813-71.936 130.219-71.936 209.067zM512 106.667c-78.848 0-151.296 27.008-209.067 71.936l478.464 478.464c44.928-57.813 71.936-130.219 71.936-209.067 0-188.501-152.832-341.333-341.333-341.333z" />
<glyph unicode="&#xe914;" glyph-name="gridicons-bold" d="M298.667 746.283h194.005c90.709 0 156.629-12.928 197.632-38.699 41.045-25.813 61.525-66.859 61.525-123.179 0-38.229-9.003-69.547-26.923-94.080-17.963-24.491-41.813-39.211-71.595-44.203v-4.395c40.576-9.045 69.845-25.941 87.765-50.731 17.963-24.747 26.923-57.685 26.923-98.816 0-58.325-21.077-103.851-63.232-136.491-42.197-32.683-99.499-49.024-171.819-49.024h-234.283v639.616zM426.667 492.971h86.485c36.779 0 63.403 5.675 79.872 17.067 16.512 11.392 24.704 30.208 24.704 56.448 0 24.491-8.96 42.069-26.88 52.736-17.963 10.624-46.379 15.957-85.163 15.957h-79.019v-142.208zM426.667 385.323v-166.656h96.128c37.376 0 64.896 7.125 82.731 21.419 17.792 14.293 26.709 36.181 26.709 65.664 0 53.077-37.931 79.573-113.835 79.573h-91.733z" />
<glyph unicode="&#xe915;" glyph-name="gridicons-book" d="M170.667 832h85.333v-768h-85.333v768zM768 832h-469.333v-768h469.333c46.933 0 85.333 38.4 85.333 85.333v597.333c0 46.933-38.4 85.333-85.333 85.333zM682.667 576h-256v42.667h256v-42.667zM682.667 661.333h-256v42.667h256v-42.667z" />
<glyph unicode="&#xe916;" glyph-name="gridicons-bookmark-outline" d="M725.333 746.667v-535.637l-213.333 121.899-213.333-121.899v535.637h426.667zM725.333 832h-426.667c-47.147 0-85.333-38.229-85.333-85.333v-682.667l298.667 170.667 298.667-170.667v682.667c0 47.104-38.229 85.333-85.333 85.333v0z" />
<glyph unicode="&#xe917;" glyph-name="gridicons-bookmark" d="M725.333 832h-426.667c-47.147 0-85.333-38.229-85.333-85.333v-682.667l298.667 170.667 298.667-170.667v682.667c0 47.104-38.229 85.333-85.333 85.333z" />
<glyph unicode="&#xe918;" glyph-name="gridicons-briefcase" d="M597.333 320h-170.667v85.333h-341.333v-256c0-47.147 38.187-85.333 85.333-85.333h682.667c47.147 0 85.333 38.187 85.333 85.333v256h-341.333v-85.333zM853.333 704h-85.333v85.333c0 47.147-38.187 85.333-85.333 85.333h-341.333c-47.147 0-85.333-38.187-85.333-85.333v-85.333h-85.333c-47.147 0-85.333-38.187-85.333-85.333v-170.667h853.333v170.667c0 47.147-38.187 85.333-85.333 85.333zM682.667 704h-341.333v85.333h341.333v-85.333z" />
<glyph unicode="&#xe919;" glyph-name="gridicons-calendar" d="M810.667 789.333h-42.667v85.333h-85.333v-85.333h-341.333v85.333h-85.333v-85.333h-42.667c-47.147 0-85.333-38.229-85.333-85.333v-554.667c0-47.104 38.187-85.333 85.333-85.333h597.333c47.104 0 85.333 38.229 85.333 85.333v554.667c0 47.104-38.229 85.333-85.333 85.333zM810.667 149.333h-597.333v469.333h597.333v-469.333z" />
<glyph unicode="&#xe91a;" glyph-name="gridicons-camera" d="M725.333 448c0-72.533-55.467-128-128-128s-128 55.467-128 128 55.467 128 128 128 128-55.467 128-128zM938.667 661.333v-469.333c0-46.933-38.4-85.333-85.333-85.333h-682.667c-46.933 0-85.333 38.4-85.333 85.333v469.333c0 46.933 38.4 85.333 85.333 85.333v42.667h170.667v-42.667h85.333l42.667 85.333h256l42.667-85.333h85.333c46.933 0 85.333-38.4 85.333-85.333zM320 576c0 34.133-29.867 64-64 64s-64-29.867-64-64 29.867-64 64-64 64 29.867 64 64zM810.667 448c0 119.467-93.867 213.333-213.333 213.333s-213.333-93.867-213.333-213.333 93.867-213.333 213.333-213.333 213.333 93.867 213.333 213.333z" />
<glyph unicode="&#xe91b;" glyph-name="gridicons-caption" d="M853.333 320l85.333 85.333v-213.333c0-47.147-38.187-85.333-85.333-85.333h-682.667c-47.147 0-85.333 38.187-85.333 85.333v512c0 47.147 38.187 85.333 85.333 85.333h554.667l-85.333-85.333h-469.333v-512h682.667v128zM957.44 685.227l-37.547 37.547c-25.003 24.96-65.451 24.96-90.453 0l-317.44-317.44v-85.333h-256v-85.333h384v42.667l317.44 317.44c24.96 25.003 24.96 65.451 0 90.453z" />
<glyph unicode="&#xe91c;" glyph-name="gridicons-cart" d="M384 106.667c0-46.933-38.4-85.333-85.333-85.333s-84.907 38.4-84.907 85.333 37.973 85.333 84.907 85.333 85.333-38.4 85.333-85.333zM725.333 192c-46.933 0-84.907-38.4-84.907-85.333s37.973-85.333 84.907-85.333 85.333 38.4 85.333 85.333-38.4 85.333-85.333 85.333zM742.229 405.333c39.979 0 74.624 27.776 83.285 66.816l70.485 274.517h-597.333v42.667c0 47.147-38.187 85.333-85.333 85.333h-85.333v-85.333h85.333v-469.333c0-47.147 38.187-85.333 85.333-85.333h512c0 47.147-38.187 85.333-85.333 85.333h-426.667v85.333h443.563z" />
<glyph unicode="&#xe91d;" glyph-name="gridicons-checkmark-circle" d="M469.333 201.899l-208.384 208.384 75.435 75.435 132.949-132.949 369.408 369.408c-78.293 93.141-195.541 152.491-326.741 152.491-235.648 0-426.667-191.019-426.667-426.667s191.019-426.667 426.667-426.667 426.667 191.019 426.667 426.667c0 65.195-15.061 126.763-41.216 182.016l-428.117-428.117z" />
<glyph unicode="&#xe91e;" glyph-name="gridicons-checkmark" d="M384 131.669l-286.165 286.165 60.331 60.331 225.835-225.835 481.835 481.835 60.331-60.331z" />
<glyph unicode="&#xe91f;" glyph-name="gridicons-chevron-down" d="M853.333 576l-341.333-341.333-341.333 341.333 60.331 60.331 281.003-281.003 281.003 281.003z" />
<glyph unicode="&#xe920;" glyph-name="gridicons-chevron-left" d="M597.333 106.667l-341.333 341.333 341.333 341.333 60.331-60.331-281.003-281.003 281.003-281.003z" />
<glyph unicode="&#xe921;" glyph-name="gridicons-chevron-right" d="M426.667 106.667l341.333 341.333-341.333 341.333-60.331-60.331 281.003-281.003-281.003-281.003z" />
<glyph unicode="&#xe922;" glyph-name="gridicons-chevron-up" d="M170.667 320l341.333 341.333 341.333-341.333-60.331-60.331-281.003 281.003-281.003-281.003z" />
<glyph unicode="&#xe923;" glyph-name="gridicons-clear-formatting" d="M462.379 526.379l-196.267-196.267 160.555 459.221h170.667l33.152-94.848-91.477-91.477-26.752 89.259-49.877-165.888zM696.832 504.789l124.245-355.456h-146.091l-44.757 149.333h-139.563l-277.333-277.333-64 64 725.333 725.333 64-64-241.835-241.877zM598.229 406.229l-1.323-1.323 1.365 0.427-0.043 0.896z" />
<glyph unicode="&#xe924;" glyph-name="gridicons-clipboard" d="M682.667 192h-341.333v85.333h341.333v-85.333zM682.667 448h-341.333v-85.333h341.333v85.333zM768 832h-85.333v-85.333h85.333v-640h-512v640h85.333v85.333h-85.333c-47.147 0-85.333-38.187-85.333-85.333v-640c0-47.147 38.187-85.333 85.333-85.333h512c47.147 0 85.333 38.187 85.333 85.333v640c0 47.147-38.187 85.333-85.333 85.333zM597.333 746.667v42.667c0 47.147-38.187 85.333-85.333 85.333s-85.333-38.187-85.333-85.333v-42.667c-47.147 0-85.333-38.187-85.333-85.333v-42.667h341.333v42.667c0 47.147-38.187 85.333-85.333 85.333z" />
<glyph unicode="&#xe925;" glyph-name="gridicons-cloud-download" d="M768 576c-0.384 0-0.725-0.085-1.067-0.128-10.88 143.232-130.261 256.128-276.267 256.128-153.173 0-277.333-124.16-277.333-277.333 0-22.357 2.944-43.989 7.936-64.811-2.688 0.128-5.205 0.811-7.936 0.811-94.251 0-170.667-76.416-170.667-170.667 0-51.285 23.083-96.725 58.88-128h793.301c52.181 38.869 86.485 100.565 86.485 170.667 0 117.803-95.531 213.333-213.333 213.333zM512 277.333l-170.667 213.333h128v128h85.333v-128h128l-170.667-213.333z" />
<glyph unicode="&#xe926;" glyph-name="gridicons-cloud-outline" d="M490.667 746.667c99.669 0 183.637-77.867 191.189-177.237l6.016-79.403 83.627 0.597c68.949-1.835 124.501-58.539 124.501-127.957 0-31.915-11.947-61.952-33.408-85.333h-722.688c-6.613 10.923-11.904 25.131-11.904 42.667 0 45.824 36.309 83.328 81.707 85.248 2.517-0.299 5.035-0.512 7.595-0.64l113.451-5.291-26.496 110.421c-3.755 15.659-5.589 30.336-5.589 44.928 0 105.856 86.144 192 192 192zM490.667 832c-153.173 0-277.333-124.16-277.333-277.333 0-22.357 2.944-43.989 7.936-64.811-2.688 0.128-5.205 0.811-7.936 0.811-94.251 0-170.667-76.416-170.667-170.667 0-51.285 23.083-96.725 58.88-128h793.301c52.181 38.869 86.485 100.565 86.485 170.667 0 117.803-95.531 213.333-213.333 213.333-0.384 0-0.725-0.085-1.067-0.085-10.88 143.189-130.261 256.085-276.267 256.085v0z" />
<glyph unicode="&#xe927;" glyph-name="gridicons-cloud-upload" d="M768 576c-0.384 0-0.725-0.085-1.067-0.128-10.88 143.232-130.261 256.128-276.267 256.128-153.173 0-277.333-124.16-277.333-277.333 0-22.357 2.944-43.989 7.936-64.811-2.688 0.128-5.205 0.811-7.936 0.811-94.251 0-170.667-76.416-170.667-170.667 0-51.285 23.083-96.725 58.88-128h793.301c52.181 38.869 86.485 100.565 86.485 170.667 0 117.803-95.531 213.333-213.333 213.333zM554.667 405.333v-128h-85.333v128h-128l170.667 213.333 170.667-213.333h-128z" />
<glyph unicode="&#xe928;" glyph-name="gridicons-cloud" d="M768 576c-0.384 0-0.725-0.085-1.067-0.128-10.88 143.232-130.261 256.128-276.267 256.128-153.173 0-277.333-124.16-277.333-277.333 0-22.357 2.944-43.989 7.936-64.811-2.688 0.128-5.205 0.811-7.936 0.811-94.251 0-170.667-76.416-170.667-170.667 0-51.285 23.083-96.725 58.88-128h793.301c52.181 38.869 86.485 100.565 86.485 170.667 0 117.803-95.531 213.333-213.333 213.333z" />
<glyph unicode="&#xe929;" glyph-name="gridicons-code" d="M206.080 448l195.413-195.84-60.16-60.16-256 256 256 256 60.16-60.16-195.413-195.84zM622.507 252.16l60.16-60.16 256 256-256 256-60.16-60.16 195.413-195.84-195.413-195.84z" />
<glyph unicode="&#xe92a;" glyph-name="gridicons-cog" d="M853.333 448c0 24.235-2.603 47.872-7.424 70.656l78.251 68.779-85.333 147.797-99.072-33.536c-34.944 31.403-76.245 55.808-121.984 70.699l-20.437 102.272h-170.667l-20.437-102.229c-45.739-14.891-87.040-39.296-121.984-70.699l-99.072 33.493-85.333-147.797 78.251-68.779c-4.821-22.784-7.424-46.421-7.424-70.656s2.603-47.872 7.424-70.656l-78.251-68.779 85.333-147.797 99.072 33.536c34.944-31.403 76.245-55.808 121.984-70.699l20.437-102.272h170.667l20.437 102.229c45.739 14.891 86.997 39.296 121.984 70.699l99.072-33.536 85.333 147.797-78.251 68.779c4.821 22.827 7.424 46.464 7.424 70.699zM512 277.333c-94.251 0-170.667 76.416-170.667 170.667s76.416 170.667 170.667 170.667c94.251 0 170.667-76.416 170.667-170.667s-76.416-170.667-170.667-170.667z" />
<glyph unicode="&#xe92b;" glyph-name="gridicons-comment" d="M128 704v-384c0-47.147 38.187-85.333 85.333-85.333h384v-213.333l227.2 162.304c44.843 32 71.467 83.755 71.467 138.837v381.525c0 47.147-38.187 85.333-85.333 85.333h-597.333c-47.147 0-85.333-38.187-85.333-85.333z" />
<glyph unicode="&#xe92c;" glyph-name="gridicons-computer" d="M853.333 874.667h-682.667c-47.104 0-85.333-38.229-85.333-85.333v-512c0-47.104 38.229-85.333 85.333-85.333h256v-85.333h-128v-85.333h426.667v85.333h-128v85.333h256c47.104 0 85.333 38.229 85.333 85.333v512c0 47.104-38.229 85.333-85.333 85.333zM853.333 277.333h-682.667v512h682.667v-512z" />
<glyph unicode="&#xe92d;" glyph-name="gridicons-coupon" d="M554.667 277.333v-85.333h-85.333v85.333h85.333zM682.667 405.333h85.333v85.333h-85.333v-85.333zM768 64h-85.333v-85.333h85.333v85.333zM896 277.333v-85.333h85.333v85.333h-85.333zM853.333 405.333c23.552 0 42.667-19.115 42.667-42.667h85.333c0 70.699-57.301 128-128 128v-85.333zM896 106.667c0-23.552-19.115-42.667-42.667-42.667v-85.333c70.699 0 128 57.301 128 128h-85.333zM597.333 64c-23.552 0-42.667 19.115-42.667 42.667h-85.333c0-70.699 57.301-128 128-128v85.333zM734.293 286.293c-33.323-33.323-87.339-33.365-120.661-0.085-0.043 0.043-0.043 0.043-0.085 0.085l-186.88 186.88-61.013-61.44c11.904-21.589 18.219-45.781 18.347-70.4 0-82.475-66.859-149.333-149.333-149.333s-149.333 66.859-149.333 149.333 66.859 149.333 149.333 149.333c24.619-0.128 48.811-6.443 70.4-18.347l61.44 61.013-61.44 61.013c-21.589-11.904-45.781-18.219-70.4-18.347-82.475 0-149.333 66.859-149.333 149.333s66.859 149.333 149.333 149.333 149.333-66.859 149.333-149.333c-0.128-24.619-6.443-48.811-18.347-70.4l61.013-61.44 165.547 165.547c33.323 33.323 87.339 33.365 120.661 0.085 0.043-0.043 0.043-0.043 0.085-0.085l-226.133-225.707 247.467-247.040zM234.667 661.333c35.328 0 64 28.672 64 64s-28.672 64-64 64-64-28.672-64-64 28.672-64 64-64zM298.667 341.333c0 35.328-28.672 64-64 64s-64-28.672-64-64 28.672-64 64-64 64 28.672 64 64v0z" />
<glyph unicode="&#xe92e;" glyph-name="gridicons-create" d="M896 490.667v-341.333c0-47.147-38.187-85.333-85.333-85.333h-597.333c-47.147 0-85.333 38.187-85.333 85.333v597.333c0 47.147 38.187 85.333 85.333 85.333h341.333l-85.333-85.333h-256v-597.333h597.333v256l85.333 85.333zM298.667 234.667h128l320 320-128 128-320-320v-128zM722.731 786.731l-61.397-61.397 128-128 61.397 61.397c25.003 25.003 25.003 65.536 0 90.496l-37.504 37.504c-24.96 25.003-65.493 25.003-90.496 0z" />
<glyph unicode="&#xe92f;" glyph-name="gridicons-credit-card" d="M853.333 789.333h-682.667c-47.147 0-85.333-38.187-85.333-85.333v-512c0-47.147 38.187-85.333 85.333-85.333h682.667c47.147 0 85.333 38.187 85.333 85.333v512c0 47.147-38.187 85.333-85.333 85.333zM853.333 704v-85.333h-682.667v85.333h682.667zM170.667 192v256h682.667v-256h-682.667zM256 362.667h298.667v-85.333h-298.667v85.333zM640 362.667h128v-85.333h-128v85.333z" />
<glyph unicode="&#xe930;" glyph-name="gridicons-crop" d="M938.667 277.333h-170.667v341.333c0 47.147-38.187 85.333-85.333 85.333h-341.333v170.667h-85.333v-170.667h-170.667v-85.333h170.667v-341.333c0-47.147 38.187-85.333 85.333-85.333h341.333v-170.667h85.333v170.667h170.667v85.333zM341.333 277.333v341.333h341.333v-341.333h-341.333z" />
<glyph unicode="&#xe931;" glyph-name="gridicons-cross-circle" d="M814.933 750.933c-166.4 166.4-439.467 166.4-605.867 0s-166.4-439.467 0-605.867 435.2-166.4 601.6 0 170.667 439.467 4.267 605.867zM631.467 268.8l-119.467 119.467-119.467-119.467-59.733 59.733 119.467 119.467-119.467 119.467 59.733 59.733 119.467-119.467 119.467 119.467 59.733-59.733-119.467-119.467 119.467-119.467-59.733-59.733z" />
<glyph unicode="&#xe932;" glyph-name="gridicons-cross-small" d="M755.413 631.253l-60.16 60.16-183.253-183.253-183.253 183.253-60.16-60.16 183.253-183.253-183.253-183.253 60.16-60.16 183.253 183.253 183.253-183.253 60.16 60.16-183.253 183.253 183.253 183.253z" />
<glyph unicode="&#xe933;" glyph-name="gridicons-cross" d="M783.36 116.053l-271.36 271.787-271.36-271.787-60.587 60.587 271.787 271.36-271.787 271.36 60.587 60.587 271.36-271.787 271.36 271.36 60.16-60.16-271.36-271.36 271.36-271.36z" />
<glyph unicode="&#xe934;" glyph-name="gridicons-custom-post-type" d="M810.667 832h-597.333c-47.147 0-85.333-38.187-85.333-85.333v-597.333c0-47.147 38.187-85.333 85.333-85.333h597.333c47.147 0 85.333 38.187 85.333 85.333v597.333c0 47.147-38.187 85.333-85.333 85.333zM256 704h213.333v-213.333h-213.333v213.333zM448 149.333c-58.923 0-106.667 47.744-106.667 106.667s47.744 106.667 106.667 106.667c58.923 0 106.667-47.744 106.667-106.667s-47.744-106.667-106.667-106.667zM576 405.333l128 213.333 128-213.333h-256z" />
<glyph unicode="&#xe935;" glyph-name="gridicons-customize" d="M85.333 704c0 64.213 33.28 131.413 85.333 170.667 0-36.053 29.44-85.333 85.333-85.333 70.699 0 128-57.301 128-128 0-16.469-3.371-32.085-9.045-46.549 31.531-25.301 62.976-50.688 93.483-77.141l-88.747-88.747c-26.453 30.507-51.84 61.995-77.141 93.483-14.464-5.675-30.080-9.045-46.549-9.045-94.293 0-170.667 76.373-170.667 170.667zM603.819 411.819l57.216 57.216c25.856-13.013 54.699-21.035 85.632-21.035 106.027 0 192 85.973 192 192 0 30.933-8.021 59.776-21.035 85.632l-149.632-149.632-85.333 85.333 149.632 149.632c-25.856 13.013-54.699 21.035-85.632 21.035-106.027 0-192-85.973-192-192 0-30.933 8.021-59.776 21.035-85.632l-447.701-447.701 85.333-85.333 292.181 292.181c80.427-82.261 165.291-160.128 255.019-232.491l60.8-49.024 64 64-49.024 60.8c-72.363 89.728-150.229 174.592-232.491 255.019z" />
<glyph unicode="&#xe936;" glyph-name="gridicons-domains" d="M512 874.667c-235.648 0-426.667-191.019-426.667-426.667s191.019-426.667 426.667-426.667 426.667 191.019 426.667 426.667c0 235.648-191.019 426.667-426.667 426.667zM807.168 618.667h-137.173c-8.021 60.757-17.92 113.109-24.107 143.232 67.968-29.099 124.416-79.787 161.28-143.232zM555.264 786.261c2.901-15.019 16.512-86.955 27.52-167.595h-141.568c11.008 80.64 24.619 152.576 27.52 167.595 14.208 1.835 28.587 3.072 43.264 3.072s29.056-1.237 43.264-3.072zM597.333 448c0-25.515-1.835-54.869-4.651-85.333h-161.365c-2.816 30.464-4.651 59.819-4.651 85.333s1.835 54.869 4.651 85.333h161.365c2.816-30.464 4.651-59.819 4.651-85.333zM378.112 761.899c-6.187-30.123-16.085-82.475-24.107-143.232h-137.173c36.864 63.445 93.312 114.133 161.28 143.232zM181.888 533.333h163.029c-2.176-28.501-3.584-57.344-3.584-85.333s1.408-56.832 3.627-85.333h-163.072c-7.083 27.349-11.221 55.808-11.221 85.333s4.181 57.984 11.221 85.333zM216.832 277.333h137.173c8.021-60.757 17.92-113.067 24.107-143.232-67.968 29.099-124.416 79.787-161.28 143.232zM468.736 109.739c-2.901 15.061-16.555 86.955-27.52 167.595h141.568c-11.008-80.64-24.619-152.576-27.52-167.595-14.208-1.835-28.587-3.072-43.264-3.072s-29.056 1.237-43.264 3.072zM645.888 134.101c6.187 30.165 16.085 82.475 24.107 143.232h137.173c-36.864-63.445-93.312-114.133-161.28-143.232zM842.112 362.667h-163.029c2.176 28.501 3.584 57.344 3.584 85.333s-1.408 56.832-3.627 85.333h163.029c7.083-27.349 11.264-55.808 11.264-85.333s-4.139-57.984-11.221-85.333z" />
<glyph unicode="&#xe937;" glyph-name="gridicons-dropdown" d="M298.667 533.333l213.333-213.333 213.333 213.333z" />
<glyph unicode="&#xe938;" glyph-name="gridicons-ellipsis-circle" d="M512 874.667c-234.667 0-426.667-192-426.667-426.667s192-426.667 426.667-426.667 426.667 192 426.667 426.667-192 426.667-426.667 426.667zM320 384c-34.133 0-64 29.867-64 64s29.867 64 64 64 64-29.867 64-64-29.867-64-64-64zM512 384c-34.133 0-64 29.867-64 64s29.867 64 64 64 64-29.867 64-64-29.867-64-64-64zM704 384c-34.133 0-64 29.867-64 64s29.867 64 64 64c34.133 0 64-29.867 64-64s-29.867-64-64-64z" />
<glyph unicode="&#xe939;" glyph-name="gridicons-ellipsis" d="M298.667 448c0-47.104-38.229-85.333-85.333-85.333s-85.333 38.229-85.333 85.333 38.229 85.333 85.333 85.333 85.333-38.229 85.333-85.333zM810.667 533.333c-47.104 0-85.333-38.229-85.333-85.333s38.229-85.333 85.333-85.333 85.333 38.229 85.333 85.333-38.229 85.333-85.333 85.333zM512 533.333c-47.104 0-85.333-38.229-85.333-85.333s38.229-85.333 85.333-85.333 85.333 38.229 85.333 85.333-38.229 85.333-85.333 85.333z" />
<glyph unicode="&#xe93a;" glyph-name="gridicons-external" d="M810.667 405.333v-256c0-47.147-38.187-85.333-85.333-85.333h-512c-47.147 0-85.333 38.187-85.333 85.333v512c0 47.147 38.187 85.333 85.333 85.333h256v-85.333h-256v-512h512v256h85.333zM554.667 832v-85.333h195.669l-332.501-332.501 60.331-60.331 332.501 332.501v-195.669h85.333v341.333h-341.333z" />
<glyph unicode="&#xe93b;" glyph-name="gridicons-flag" d="M640 704c0 47.147-38.187 85.333-85.333 85.333h-341.333v-725.333h85.333v298.667h213.333c0-47.147 38.187-85.333 85.333-85.333h256v426.667h-213.333z" />
<glyph unicode="&#xe93c;" glyph-name="gridicons-flip-horizontal" d="M853.333 192v213.333h128v85.333h-128v213.333c0 47.147-38.187 85.333-85.333 85.333h-512c-47.147 0-85.333-38.187-85.333-85.333v-213.333h-128v-85.333h128v-213.333c0-47.147 38.187-85.333 85.333-85.333h512c47.147 0 85.333 38.187 85.333 85.333zM256 704h512v-213.333h-512v213.333z" />
<glyph unicode="&#xe93d;" glyph-name="gridicons-flip-vertical" d="M768 789.333h-213.333v128h-85.333v-128h-213.333c-47.147 0-85.333-38.187-85.333-85.333v-512c0-47.147 38.187-85.333 85.333-85.333h213.333v-128h85.333v128h213.333c47.147 0 85.333 38.187 85.333 85.333v512c0 47.147-38.187 85.333-85.333 85.333zM256 192v512h213.333v-512h-213.333z" />
<glyph unicode="&#xe93e;" glyph-name="gridicons-folder-multiple" d="M170.667 618.667v0c-47.147 0-85.333-38.187-85.333-85.333v-426.667c0-46.933 38.4-85.333 85.333-85.333h597.333c47.147 0 85.333 38.187 85.333 85.333v0h-682.667v512zM853.333 192h-512c-47.147 0-85.333 38.187-85.333 85.333v426.667c0 47.147 38.187 85.333 85.333 85.333h128c47.147 0 85.333-38.187 85.333-85.333v0h298.667c47.147 0 85.333-38.187 85.333-85.333v-341.333c0-47.147-38.187-85.333-85.333-85.333z" />
<glyph unicode="&#xe93f;" glyph-name="gridicons-folder" d="M768 149.333h-512c-46.933 0-85.333 38.4-85.333 85.333v426.667c0 46.933 38.4 85.333 85.333 85.333h128c46.933 0 85.333-38.4 85.333-85.333v0h298.667c46.933 0 85.333-38.4 85.333-85.333v-341.333c0-46.933-38.4-85.333-85.333-85.333z" />
<glyph unicode="&#xe940;" glyph-name="gridicons-globe" d="M512 874.667c-235.648 0-426.667-191.019-426.667-426.667s191.019-426.667 426.667-426.667 426.667 191.019 426.667 426.667c0 235.648-191.019 426.667-426.667 426.667zM512 106.667l128 128v85.333h-85.333v42.667l-42.667 42.667h-128v-128l85.333-85.333v-82.389c-168.107 21.12-298.667 164.651-298.667 338.389l42.667-42.667h85.333v85.333h85.333l128 128v85.333h-85.333l-42.667 42.667v17.536c39.552 16.085 82.731 25.131 128 25.131s88.448-9.045 128-25.131v-60.203l-42.667-42.667v-85.333l42.667-42.667 133.547 133.547c32.085-38.272 55.637-83.797 68.523-133.547h-74.069l-85.333-85.333v-85.333l42.667-42.667h85.333l12.203-12.203c-53.632-118.4-172.672-201.131-310.869-201.131z" />
<glyph unicode="&#xe941;" glyph-name="gridicons-grid" d="M341.333 618.667h-170.667v170.667h170.667v-170.667zM597.333 789.333h-170.667v-170.667h170.667v170.667zM853.333 789.333h-170.667v-170.667h170.667v170.667zM341.333 533.333h-170.667v-170.667h170.667v170.667zM597.333 533.333h-170.667v-170.667h170.667v170.667zM853.333 533.333h-170.667v-170.667h170.667v170.667zM341.333 277.333h-170.667v-170.667h170.667v170.667zM597.333 277.333h-170.667v-170.667h170.667v170.667zM853.333 277.333h-170.667v-170.667h170.667v170.667z" />
<glyph unicode="&#xe942;" glyph-name="gridicons-heading" d="M768 106.667h-128v256h-256v-256h-128v639.616h128v-255.616h256v255.616h128v-639.616z" />
<glyph unicode="&#xe943;" glyph-name="gridicons-heart-outline" d="M704 768c94.123 0 170.667-76.544 170.667-170.667 0-199.211-236.501-381.483-362.667-470.315-126.165 88.832-362.667 271.104-362.667 470.315 0 94.123 76.544 170.667 170.667 170.667 55.381 0 107.605-27.221 139.648-72.789l52.352-74.539 52.352 74.496c32.043 45.611 84.267 72.832 139.648 72.832zM704 832c-79.445 0-149.547-39.595-192-100.011-42.453 60.416-112.555 100.011-192 100.011-129.621 0-234.667-105.045-234.667-234.667 0-244.011 277.333-445.355 426.667-548.267 149.333 102.912 426.667 304.256 426.667 548.267 0 129.621-105.045 234.667-234.667 234.667v0z" />
<glyph unicode="&#xe944;" glyph-name="gridicons-heart" d="M704 832c-79.445 0-149.547-39.595-192-100.011-42.453 60.416-112.555 100.011-192 100.011-129.621 0-234.667-105.045-234.667-234.667 0-244.011 277.333-445.355 426.667-548.267 149.333 102.912 426.667 304.256 426.667 548.267 0 129.621-105.045 234.667-234.667 234.667z" />
<glyph unicode="&#xe945;" glyph-name="gridicons-help-outline" d="M512 789.333c188.203 0 341.333-153.131 341.333-341.333s-153.131-341.333-341.333-341.333-341.333 153.131-341.333 341.333 153.131 341.333 341.333 341.333zM512 874.667c-235.648 0-426.667-191.019-426.667-426.667s191.019-426.667 426.667-426.667 426.667 191.019 426.667 426.667-191.019 426.667-426.667 426.667v0zM682.667 533.333c0 94.251-76.416 170.667-170.667 170.667s-170.667-76.416-170.667-170.667h85.333c0 47.061 38.272 85.333 85.333 85.333s85.333-38.272 85.333-85.333-38.272-85.333-85.333-85.333c-23.552 0-42.667-19.115-42.667-42.667v-85.333h85.333v48.683c73.472 19.029 128 85.205 128 164.651zM554.667 277.333h-85.333v-85.333h85.333v85.333z" />
<glyph unicode="&#xe946;" glyph-name="gridicons-help" d="M512 874.667c-235.648 0-426.667-191.019-426.667-426.667s191.019-426.667 426.667-426.667 426.667 191.019 426.667 426.667-191.019 426.667-426.667 426.667zM554.667 192h-85.333v85.333h85.333v-85.333zM554.667 368.683v-48.683h-85.333v85.333c0 23.552 19.115 42.667 42.667 42.667 47.061 0 85.333 38.272 85.333 85.333s-38.272 85.333-85.333 85.333-85.333-38.272-85.333-85.333h-85.333c0 94.251 76.416 170.667 170.667 170.667s170.667-76.416 170.667-170.667c0-79.445-54.528-145.621-128-164.651z" />
<glyph unicode="&#xe947;" glyph-name="gridicons-history" d="M90.453 382.891c31.659-203.989 209.152-361.387 421.589-361.387 234.624 0 426.581 191.957 426.581 426.581s-191.915 426.581-426.539 426.581c-140.715 0-264.533-68.309-341.419-170.667v0 170.624l-85.205 0.043-0.128-298.667h298.667v85.333l-136.491 0.043c59.691 76.715 157.909 127.957 264.576 127.957 187.648 0 341.248-153.6 341.248-341.248s-153.6-341.291-341.291-341.291c-165.461 0-304.299 119.211-334.891 276.096h-86.699zM469.419 661.376v-226.219l136.576-183.339 68.267 51.072-119.509 157.909v200.576z" />
<glyph unicode="&#xe948;" glyph-name="gridicons-house" d="M938.667 576l-426.667 341.333-426.667-341.333v-85.333h85.333v-426.667h213.333v170.667c0 70.699 57.301 128 128 128s128-57.301 128-128v-170.667h213.333v426.667h85.333v85.333z" />
<glyph unicode="&#xe949;" glyph-name="gridicons-image-multiple" d="M640 640c0 35.328 28.672 64 64 64s64-28.672 64-64-28.672-64-64-64c-35.328 0-64 28.672-64 64zM170.667 106.667h597.333c0-47.147-38.187-85.333-85.333-85.333h-512c-46.933 0-85.333 38.4-85.333 85.333v512c0 47.147 38.187 85.333 85.333 85.333v0-597.333zM938.667 789.333v-512c0-47.147-38.187-85.333-85.333-85.333h-512c-47.147 0-85.333 38.187-85.333 85.333v512c0 47.147 38.187 85.333 85.333 85.333h512c47.147 0 85.333-38.187 85.333-85.333zM341.333 789.333v-270.208l128 142.208 207.147-230.187 27.989 31.189c33.92 37.76 93.099 37.76 126.976 0l21.888-24.32v351.317h-512z" />
<glyph unicode="&#xe94a;" glyph-name="gridicons-image" d="M554.667 554.667c0 35.328 28.672 64 64 64s64-28.672 64-64-28.672-64-64-64-64 28.672-64 64zM938.667 704v-512c0-47.147-38.187-85.333-85.333-85.333h-682.667c-47.147 0-85.333 38.187-85.333 85.333v512c0 47.147 38.187 85.333 85.333 85.333h682.667c47.147 0 85.333-38.187 85.333-85.333zM853.333 704h-682.667v-317.611l170.667 189.611 251.52-279.467 67.712 78.976c34.048 39.723 95.531 39.723 129.579 0l63.189-73.728v402.219z" />
<glyph unicode="&#xe94b;" glyph-name="gridicons-indent-left" d="M768 106.667h85.333v682.667h-85.333v-682.667zM85.333 490.667h434.005l-89.003 89.003 60.331 60.331 192-192-192-192-60.331 60.331 89.003 89.003h-434.005v85.333z" />
<glyph unicode="&#xe94c;" glyph-name="gridicons-indent-right" d="M256 789.333h-85.333v-682.667h85.333v682.667zM938.667 405.333h-434.005l89.003-89.003-60.331-60.331-192 192 192 192 60.331-60.331-89.003-89.003h434.005v-85.333z" />
<glyph unicode="&#xe94d;" glyph-name="gridicons-info-outline" d="M554.667 576h-85.333v85.333h85.333v-85.333zM554.667 490.667h-85.333v-256h85.333v256zM512 789.333c-188.203 0-341.333-153.131-341.333-341.333s153.131-341.333 341.333-341.333 341.333 153.131 341.333 341.333-153.131 341.333-341.333 341.333zM512 874.667c235.648 0 426.667-191.019 426.667-426.667s-191.019-426.667-426.667-426.667-426.667 191.019-426.667 426.667 191.019 426.667 426.667 426.667v0z" />
<glyph unicode="&#xe94e;" glyph-name="gridicons-info" d="M512 874.667c-235.648 0-426.667-191.019-426.667-426.667s191.019-426.667 426.667-426.667 426.667 191.019 426.667 426.667-191.019 426.667-426.667 426.667zM554.667 234.667h-85.333v256h85.333v-256zM554.667 576h-85.333v85.333h85.333v-85.333z" />
<glyph unicode="&#xe94f;" glyph-name="gridicons-ink" d="M213.333 320c0-164.949 133.717-298.667 298.667-298.667s298.667 133.717 298.667 298.667c0 59.179-17.451 114.219-47.147 160.64h0.299c-100.693 157.611-251.819 394.027-251.819 394.027s-151.125-236.416-251.861-394.027h0.299c-29.653-46.421-47.104-101.461-47.104-160.64z" />
<glyph unicode="&#xe950;" glyph-name="gridicons-institution" d="M85.333 149.333h853.333v-128h-853.333v128zM512 874.667l-426.667-170.667v-85.333h853.333v85.333zM725.333 533.333h128v-298.667h-128v298.667zM448 533.333h128v-298.667h-128v298.667zM170.667 533.333h128v-298.667h-128v298.667z" />
<glyph unicode="&#xe951;" glyph-name="gridicons-italic" d="M449.536 746.667l-18.219-85.333h64l-100.096-469.333h-64l-18.219-85.333h261.461l18.176 85.333h-64l100.139 469.333h64l18.219 85.333z" />
<glyph unicode="&#xe952;" glyph-name="gridicons-layout-blocks" d="M896 661.333h-85.333v170.667c0 47.147-38.187 85.333-85.333 85.333h-426.667c-47.147 0-85.333-38.187-85.333-85.333v-85.333h-85.333c-47.147 0-85.333-38.187-85.333-85.333v-170.667c0-47.147 38.187-85.333 85.333-85.333h85.333v-341.333c0-47.147 38.187-85.333 85.333-85.333h426.667c47.147 0 85.333 38.187 85.333 85.333v85.333h85.333c47.147 0 85.333 38.187 85.333 85.333v341.333c0 47.147-38.187 85.333-85.333 85.333zM725.333 64h-426.667v341.333h85.333c47.147 0 85.333 38.187 85.333 85.333v170.667c0 47.147-38.187 85.333-85.333 85.333h-85.333v85.333h426.667v-170.667h-85.333c-47.147 0-85.333-38.187-85.333-85.333v-341.333c0-47.147 38.187-85.333 85.333-85.333h85.333v-85.333zM896 234.667h-256v341.333h256v-341.333z" />
<glyph unicode="&#xe953;" glyph-name="gridicons-layout" d="M341.333 106.667h-128c-47.147 0-85.333 38.187-85.333 85.333v512c0 47.147 38.187 85.333 85.333 85.333h128c47.147 0 85.333-38.187 85.333-85.333v-512c0-47.147-38.187-85.333-85.333-85.333zM682.667 533.333h170.667c47.147 0 85.333 38.187 85.333 85.333v128c0 47.147-38.187 85.333-85.333 85.333h-170.667c-47.147 0-85.333-38.187-85.333-85.333v-128c0-47.147 38.187-85.333 85.333-85.333zM896 106.667v256c0 47.147-38.187 85.333-85.333 85.333h-213.333c-47.147 0-85.333-38.187-85.333-85.333v-256c0-47.147 38.187-85.333 85.333-85.333h213.333c47.147 0 85.333 38.187 85.333 85.333z" />
<glyph unicode="&#xe954;" glyph-name="gridicons-link-break" d="M426.667 490.667l-85.333-85.333h-42.667v85.333h128zM838.016 645.973l100.651 100.693-64 64-725.333-725.333 64-64 384 384h128v85.333h-42.667l85.333 85.333c47.061 0 85.333-38.272 85.333-85.333v-85.333c0-47.061-38.272-85.333-85.333-85.333h-212.352c38.955-51.541 100.139-85.333 169.685-85.333h42.667c94.251 0 170.667 76.416 170.667 170.667v85.333c0 69.248-41.429 128.555-100.651 155.307zM186.027 250.027l69.973 69.973c-47.061 0-85.333 38.272-85.333 85.333v85.333c0 47.061 38.272 85.333 85.333 85.333h212.352c-38.912 51.541-100.096 85.333-169.685 85.333h-42.667c-94.251 0-170.667-76.416-170.667-170.667v-85.333c0-69.248 41.429-128.555 100.693-155.307z" />
<glyph unicode="&#xe955;" glyph-name="gridicons-link" d="M725.333 405.333h-426.667v85.333h426.667v-85.333zM768 661.333h-42.667c-69.589 0-130.773-33.792-169.685-85.333h212.352c47.061 0 85.333-38.272 85.333-85.333v-85.333c0-47.061-38.272-85.333-85.333-85.333h-212.352c38.955-51.541 100.139-85.333 169.685-85.333h42.667c94.251 0 170.667 76.416 170.667 170.667v85.333c0 94.251-76.416 170.667-170.667 170.667zM85.333 490.667v-85.333c0-94.251 76.416-170.667 170.667-170.667h42.667c69.547 0 130.773 33.792 169.685 85.333h-212.352c-47.061 0-85.333 38.272-85.333 85.333v85.333c0 47.061 38.272 85.333 85.333 85.333h212.352c-38.912 51.541-100.096 85.333-169.685 85.333h-42.667c-94.251 0-170.667-76.416-170.667-170.667z" />
<glyph unicode="&#xe956;" glyph-name="gridicons-list-checkmark" d="M405.333 298.667l-192-192-106.667 106.667 45.269 45.269 61.397-61.44 146.731 146.731 45.269-45.227zM426.667 746.667v-85.333h469.333v85.333h-469.333zM426.667 149.333h469.333v85.333h-469.333v-85.333zM426.667 405.333h469.333v85.333h-469.333v-85.333zM360.064 599.936l-146.731-146.773-61.397 61.397-45.269-45.227 106.667-106.667 192 192-45.269 45.269zM360.064 855.936l-146.731-146.773-61.397 61.44-45.269-45.269 106.667-106.667 192 192-45.269 45.269z" />
<glyph unicode="&#xe957;" glyph-name="gridicons-list-ordered" d="M341.333 149.333h554.667v85.333h-554.667v-85.333zM341.333 405.333h554.667v85.333h-554.667v-85.333zM341.333 746.667v-85.333h554.667v85.333h-554.667zM152.533 735.915c4.565 4.096 8.405 8.021 11.477 11.733-0.512-9.728-0.768-20.48-0.768-32.256v-96.725h50.133v182.741h-44.459l-62.763-51.115 25.643-31.488 20.736 17.109zM166.784 404.651c20.267 18.176 33.493 30.507 39.68 36.992 6.229 6.485 11.179 12.672 14.933 18.56s6.528 11.861 8.32 17.92c1.792 6.101 2.688 12.715 2.688 19.883 0 9.6-2.56 18.219-7.68 25.941s-12.331 13.653-21.632 17.792c-9.301 4.224-19.84 6.315-31.659 6.315-9.429 0-17.877-0.939-25.429-2.859s-14.507-4.693-20.949-8.32c-6.4-3.627-14.336-9.643-23.765-18.048l27.136-31.744c7.424 6.4 14.080 11.264 19.925 14.549 5.888 3.285 11.691 4.949 17.451 4.949 5.589 0 9.941-1.365 13.013-4.139 3.072-2.731 4.608-6.485 4.608-11.264 0-3.84-0.768-7.509-2.304-11.008s-4.267-7.68-8.192-12.544c-3.925-4.864-12.245-13.995-25.003-27.307l-44.629-45.141v-32.512h132.608v40.747h-69.12v1.237zM189.397 202.155v0.768c13.099 3.669 23.083 9.6 29.995 17.664 6.912 8.149 10.368 17.877 10.368 29.227 0 13.184-5.376 23.509-16.128 31.019s-25.6 11.264-44.501 11.264c-13.099 0-24.704-1.408-34.816-4.267s-20.011-7.595-29.696-14.251l20.48-32.981c12.501 7.851 24.576 11.733 36.267 11.733 6.272 0 11.221-1.152 14.933-3.499s5.547-5.931 5.547-10.752c0-12.843-12.544-19.243-37.632-19.243h-11.52v-37.12h11.264c9.259 0 16.768-0.683 22.485-2.091 5.76-1.323 9.899-3.413 12.501-6.101 2.603-2.731 3.883-6.571 3.883-11.563 0-6.485-2.475-11.264-7.424-14.336-4.949-2.987-12.843-4.523-23.68-4.523-6.997 0-14.635 0.939-22.955 2.944-8.277 1.92-16.427 4.949-24.448 9.045v-41.003c9.728-3.755 18.816-6.315 27.179-7.765 8.363-1.408 17.493-2.133 27.307-2.133 23.936 0 42.581 4.864 56.064 14.635 13.44 9.728 20.181 23.125 20.181 40.107 0.128 24.96-15.147 39.381-45.653 43.221z" />
<glyph unicode="&#xe958;" glyph-name="gridicons-list-unordered" d="M384 149.333h512v85.333h-512v-85.333zM384 405.333h512v85.333h-512v-85.333zM384 746.667v-85.333h512v85.333h-512zM213.333 768c-35.328 0-64-28.672-64-64s28.672-64 64-64 64 28.672 64 64-28.672 64-64 64zM213.333 512c-35.328 0-64-28.672-64-64s28.672-64 64-64 64 28.672 64 64-28.672 64-64 64zM213.333 256c-35.328 0-64-28.672-64-64s28.672-64 64-64 64 28.672 64 64-28.672 64-64 64z" />
<glyph unicode="&#xe959;" glyph-name="gridicons-location" d="M810.667 576c0 164.949-133.717 298.667-298.667 298.667s-298.667-133.717-298.667-298.667c0-59.179 17.451-114.219 47.147-160.64h-0.341c100.736-157.611 251.861-394.027 251.861-394.027s151.125 236.416 251.861 394.027h-0.299c29.653 46.421 47.104 101.461 47.104 160.64zM512 448c-70.699 0-128 57.301-128 128s57.301 128 128 128 128-57.301 128-128-57.301-128-128-128z" />
<glyph unicode="&#xe95a;" glyph-name="gridicons-lock" d="M768 618.667h-42.667v42.667c0 117.632-95.701 213.333-213.333 213.333s-213.333-95.701-213.333-213.333v-42.667h-42.667c-47.147 0-85.333-38.187-85.333-85.333v-426.667c0-47.147 38.187-85.333 85.333-85.333h512c47.147 0 85.333 38.187 85.333 85.333v426.667c0 47.147-38.187 85.333-85.333 85.333zM384 661.333c0 70.571 57.429 128 128 128s128-57.429 128-128v-42.667h-256v42.667zM554.667 289.152v-97.152h-85.333v97.152c-25.387 14.763-42.667 41.984-42.667 73.515 0 47.147 38.187 85.333 85.333 85.333s85.333-38.187 85.333-85.333c0-31.488-17.28-58.709-42.667-73.515z" />
<glyph unicode="&#xe95b;" glyph-name="gridicons-mail" d="M853.333 789.333h-682.667c-47.147 0-85.333-38.187-85.333-85.333v-512c0-47.147 38.187-85.333 85.333-85.333h682.667c47.147 0 85.333 38.187 85.333 85.333v512c0 47.147-38.187 85.333-85.333 85.333zM853.333 608.597l-341.333-208.299-341.333 208.299v95.403h682.667v-95.403z" />
<glyph unicode="&#xe95c;" glyph-name="gridicons-mention" d="M512 874.667c-235.648 0-426.667-191.019-426.667-426.667s191.019-426.667 426.667-426.667v85.333c-188.203 0-341.333 153.131-341.333 341.333s153.131 341.333 341.333 341.333 341.333-153.131 341.333-341.333v-21.333c0-35.285-28.715-64-64-64s-64 28.715-64 64v21.333c0 117.803-95.531 213.333-213.333 213.333s-213.333-95.531-213.333-213.333 95.531-213.333 213.333-213.333c70.443 0 132.352 34.56 171.221 87.168 27.093-27.435 64.597-44.501 106.112-44.501 82.347 0 149.333 66.987 149.333 149.333v21.333c0 235.648-191.019 426.667-426.667 426.667zM512 320c-70.571 0-128 57.429-128 128s57.429 128 128 128 128-57.429 128-128c0-70.571-57.429-128-128-128z" />
<glyph unicode="&#xe95d;" glyph-name="gridicons-menu" d="M896 704v-85.333h-768v85.333h768zM128 192h768v85.333h-768v-85.333zM128 405.333h768v85.333h-768v-85.333z" />
<glyph unicode="&#xe95e;" glyph-name="gridicons-menus" d="M384 149.333h426.667v85.333h-426.667v-85.333zM384 405.333h256v85.333h-256v-85.333zM384 746.667v-85.333h512v85.333h-512zM213.333 768c-35.328 0-64-28.672-64-64s28.672-64 64-64 64 28.672 64 64-28.672 64-64 64zM213.333 512c-35.328 0-64-28.672-64-64s28.672-64 64-64 64 28.672 64 64-28.672 64-64 64zM213.333 256c-35.328 0-64-28.672-64-64s28.672-64 64-64 64 28.672 64 64-28.672 64-64 64z" />
<glyph unicode="&#xe95f;" glyph-name="gridicons-microphone" d="M512 405.333c47.104 0 85.333 38.229 85.333 85.333v213.333c0 47.104-38.229 85.333-85.333 85.333-47.147 0-85.333-38.229-85.333-85.333v-213.333c0-47.104 38.187-85.333 85.333-85.333zM682.667 490.667c0-94.251-76.416-170.667-170.667-170.667s-170.667 76.416-170.667 170.667h-85.333c0-126.805 92.331-231.808 213.333-252.16v-131.84h85.333v131.84c121.003 20.395 213.333 125.397 213.333 252.16h-85.333z" />
<glyph unicode="&#xe960;" glyph-name="gridicons-minus-small" d="M256 490.667h512v-85.333h-512v85.333z" />
<glyph unicode="&#xe961;" glyph-name="gridicons-minus" d="M128 490.667h768v-85.333h-768v85.333z" />
<glyph unicode="&#xe962;" glyph-name="gridicons-money" d="M85.333 746.667v-597.333h853.333v597.333h-853.333zM298.667 234.667c0 70.699-57.301 128-128 128v170.667c70.699 0 128 57.301 128 128h426.667c0-70.699 57.301-128 128-128v-170.667c-70.699 0-128-57.301-128-128h-426.667zM512 576c46.933 0 85.333-55.467 85.333-128s-38.4-128-85.333-128-85.333 55.467-85.333 128 38.4 128 85.333 128z" />
<glyph unicode="&#xe963;" glyph-name="gridicons-my-sites-horizon" d="M468.736 365.739l32.512 97.451-56.491 154.837c-19.541 1.152-38.059 3.456-38.059 3.456-19.541 1.152-17.28 31.019 2.304 29.909 0 0 59.861-4.608 95.531-4.608 37.931 0 96.683 4.608 96.683 4.608 19.541 1.152 21.845-27.563 2.304-29.909 0 0-19.669-2.304-41.515-3.456l85.589-254.549c-37.333 1.493-74.24 2.304-110.891 2.603l-18.304 50.219-17.195-49.963c-10.752-0.043-21.675-0.427-32.469-0.597zM163.413 348.971c-8.96 31.488-14.080 64.64-14.080 99.029 0 52.565 11.264 102.485 31.403 147.584l86.869-237.995c36.224 2.517 72.107 4.395 107.776 5.845l-85.589 254.592c21.845 1.152 41.515 3.456 41.515 3.456 19.541 2.304 17.237 31.019-2.347 29.909 0 0-58.709-4.608-96.64-4.608-6.827 0-14.805 0.171-23.339 0.427 64.853 98.432 176.299 163.456 303.019 163.456 94.421 0 180.395-36.096 244.907-95.232-1.536 0.085-3.072 0.299-4.693 0.299-35.627 0-60.885-31.019-60.885-64.384 0-29.909 17.237-55.168 35.627-85.077 13.781-24.149 29.909-55.168 29.909-100.011 0-28.757-10.453-62.421-24.448-107.093 12.843-0.811 25.771-1.835 38.699-2.816l34.048 98.432c20.693 51.755 27.563 93.099 27.563 129.877 0 13.355-0.896 25.728-2.432 37.291 28.245-51.627 44.373-110.891 44.373-173.952 0-34.432-5.461-67.456-14.464-98.987 21.333-2.091 42.88-4.779 64.341-7.211 8.789 34.005 14.123 69.419 14.123 106.197 0 235.648-191.019 426.667-426.667 426.667s-426.667-191.019-426.667-426.667c0-36.779 5.333-72.192 14.123-106.24 21.333 2.432 42.752 5.12 63.957 7.211zM787.968 213.845c-76.459-93.184-185.6-128.555-275.968-128.555-80.043 0-194.176 29.781-275.755 128.555-24.96-2.048-50.091-4.267-75.477-6.869 76.928-111.872 205.227-185.643 351.232-185.643s274.304 73.771 351.232 185.643c-25.301 2.645-50.347 4.821-75.264 6.869zM512 319.573c-158.507 0-314.368-11.349-467.541-31.275 7.637-17.493 14.933-35.2 21.589-53.205 146.219 18.389 294.827 28.971 445.952 28.971s299.733-10.581 445.952-28.971c6.656 18.005 13.952 35.669 21.589 53.163-153.173 19.925-309.035 31.317-467.541 31.317z" />
<glyph unicode="&#xe964;" glyph-name="gridicons-my-sites" d="M512 874.667c-235.648 0-426.667-191.019-426.667-426.667s191.019-426.667 426.667-426.667 426.667 191.019 426.667 426.667c0 235.648-191.019 426.667-426.667 426.667zM149.333 448c0 52.565 11.264 102.485 31.403 147.584l173.013-473.984c-121.003 58.795-204.416 182.827-204.416 326.4zM512 85.291c-35.584 0-69.973 5.205-102.443 14.763l108.843 316.203 111.488-305.408c0.725-1.792 1.621-3.456 2.603-4.992-37.76-13.269-78.251-20.565-120.491-20.565zM562.005 618.027c21.845 1.152 41.515 3.456 41.515 3.456 19.541 2.304 17.237 31.019-2.304 29.909 0 0-58.752-4.608-96.683-4.608-35.627 0-95.531 4.608-95.531 4.608-19.584 1.109-21.845-28.757-2.304-29.909 0 0 18.517-2.304 38.059-3.456l56.491-154.837-79.36-238.037-132.096 392.875c21.845 1.152 41.515 3.456 41.515 3.456 19.541 2.304 17.195 31.019-2.347 29.909 0 0-58.709-4.608-96.64-4.608-6.827 0-14.805 0.171-23.339 0.427 64.853 98.432 176.299 163.456 303.019 163.456 94.421 0 180.395-36.096 244.907-95.232-1.579 0.085-3.072 0.299-4.693 0.299-35.627 0-60.885-31.019-60.885-64.384 0-29.909 17.237-55.168 35.627-85.077 13.781-24.149 29.909-55.168 29.909-100.011 0-31.019-11.947-67.072-27.605-117.248l-36.181-120.875-131.072 389.888zM694.315 134.528l110.763 320.256c20.693 51.755 27.563 93.099 27.563 129.92 0 13.355-0.896 25.728-2.432 37.291 28.331-51.669 44.459-110.933 44.459-173.995 0-133.803-72.491-250.624-180.352-313.472z" />
<glyph unicode="&#xe965;" glyph-name="gridicons-not-visible" d="M42.667 448c0 0 178.688 256 469.333 256 40.405 0 78.464-5.163 114.261-13.739l-269.568-269.568c-9.685 21.376-15.36 44.971-15.36 69.973 0 39.979 14.293 76.245 37.333 105.344-102.059-34.645-179.797-101.76-224.171-148.011 28.928-30.165 72.32-69.163 127.147-102.315l-61.995-61.995c-113.109 73.429-176.981 164.309-176.981 164.309zM981.333 448c0 0-178.688-256-469.333-256-40.363 0-78.336 5.291-114.176 13.781l-184.491-184.448-64 64 725.333 725.333 64-64-134.272-134.272c112.981-73.472 176.939-164.395 176.939-164.395zM869.76 447.744c-28.928 30.208-72.405 69.291-127.445 102.528l-59.648-59.605c0-94.251-76.416-170.667-170.667-170.667l-40.405-40.405c13.227-1.323 26.624-2.261 40.405-2.261 169.728 0 296.235 105.728 357.76 170.411z" />
<glyph unicode="&#xe966;" glyph-name="gridicons-notice-outline" d="M512 789.333c188.203 0 341.333-153.131 341.333-341.333s-153.131-341.333-341.333-341.333-341.333 153.131-341.333 341.333 153.131 341.333 341.333 341.333zM512 874.667c-235.648 0-426.667-191.019-426.667-426.667s191.019-426.667 426.667-426.667 426.667 191.019 426.667 426.667-191.019 426.667-426.667 426.667v0zM554.667 320h-85.333v-85.333h85.333v85.333zM469.333 405.333h85.333l21.333 256h-128l21.333-256z" />
<glyph unicode="&#xe967;" glyph-name="gridicons-notice" d="M512 874.667c-235.648 0-426.667-191.019-426.667-426.667s191.019-426.667 426.667-426.667 426.667 191.019 426.667 426.667c0 235.648-191.019 426.667-426.667 426.667zM554.667 234.667h-85.333v85.333h85.333v-85.333zM554.667 405.333h-85.333l-21.333 256h128l-21.333-256z" />
<glyph unicode="&#xe968;" glyph-name="gridicons-pages" d="M682.667 618.667h-341.333v85.333h341.333v-85.333zM682.667 533.333h-341.333v-85.333h341.333v85.333zM853.333 789.333v-512l-256-256h-341.333c-47.147 0-85.333 38.187-85.333 85.333v682.667c0 47.147 38.187 85.333 85.333 85.333h512c47.147 0 85.333-38.187 85.333-85.333zM768 362.667v426.667h-512v-682.667h256v170.667c0 47.147 38.187 85.333 85.333 85.333h170.667z" />
<glyph unicode="&#xe969;" glyph-name="gridicons-pause" d="M512 874.667c-235.648 0-426.667-191.019-426.667-426.667s191.019-426.667 426.667-426.667 426.667 191.019 426.667 426.667-191.019 426.667-426.667 426.667zM469.333 277.333h-85.333v341.333h85.333v-341.333zM640 277.333h-85.333v341.333h85.333v-341.333z" />
<glyph unicode="&#xe96a;" glyph-name="gridicons-pencil" d="M554.667 704l213.333-213.333-405.632-405.632c-29.269 29.269-29.397 76.544-0.512 106.027l-0.128 0.128c-29.483-28.885-76.757-28.757-106.027 0.512-28.885 28.885-29.269 75.179-1.536 104.747l-0.341 0.341c-29.568-27.691-75.904-27.307-104.747 1.536l405.589 405.675zM878.336 721.664l-92.672 92.672c-33.323 33.323-87.339 33.323-120.661 0l-67.669-67.669 213.333-213.333 67.669 67.669c33.323 33.323 33.323 87.339 0 120.661zM128 192v-128h128c0 70.699-57.301 128-128 128z" />
<glyph unicode="&#xe96b;" glyph-name="gridicons-phone" d="M682.667 874.667h-341.333c-47.104 0-85.333-38.229-85.333-85.333v-682.667c0-47.104 38.229-85.333 85.333-85.333h341.333c47.104 0 85.333 38.229 85.333 85.333v682.667c0 47.104-38.229 85.333-85.333 85.333zM554.667 64h-85.333v42.667h85.333v-42.667zM682.667 149.333h-341.333v597.333h341.333v-597.333z" />
<glyph unicode="&#xe96c;" glyph-name="gridicons-plugins" d="M682.667 618.667v213.333c0 23.552-19.115 42.667-42.667 42.667s-42.667-19.115-42.667-42.667v-213.333h-170.667v213.333c0 23.552-19.115 42.667-42.667 42.667s-42.667-19.115-42.667-42.667v-213.333h-128v-170.667c0-119.083 69.845-221.568 170.667-269.525v-157.141h256v157.141c100.821 47.957 170.667 150.485 170.667 269.525v170.667h-128z" />
<glyph unicode="&#xe96d;" glyph-name="gridicons-plus-small" d="M768 490.667h-213.333v213.333h-85.333v-213.333h-213.333v-85.333h213.333v-213.333h85.333v213.333h213.333z" />
<glyph unicode="&#xe96e;" glyph-name="gridicons-plus" d="M896 405.333h-341.333v-341.333h-85.333v341.333h-341.333v85.333h341.333v341.333h85.333v-341.333h341.333v-85.333z" />
<glyph unicode="&#xe96f;" glyph-name="gridicons-popout" d="M256 661.333v85.333c0 47.147 38.187 85.333 85.333 85.333h469.333c47.147 0 85.333-38.187 85.333-85.333v-597.333c0-47.147-38.187-85.333-85.333-85.333h-469.333c-47.147 0-85.333 38.187-85.333 85.333v85.333h85.333v-85.333h469.333v597.333h-469.333v-85.333h-85.333zM490.667 682.667l-60.331-60.331 131.669-131.669h-434.005v-85.333h434.005l-131.669-131.669 60.331-60.331 234.667 234.667-234.667 234.667z" />
<glyph unicode="&#xe970;" glyph-name="gridicons-posts" d="M682.667 149.333h-554.667v85.333h554.667v-85.333zM896 576h-768v-85.333h768v85.333zM128 746.667v-85.333h469.333v85.333h-469.333zM725.333 746.667v-85.333h170.667v85.333h-170.667zM469.333 405.333v-85.333h426.667v85.333h-426.667zM128 405.333v-85.333h213.333v85.333h-213.333z" />
<glyph unicode="&#xe971;" glyph-name="gridicons-print" d="M384 277.333h256v-85.333h-256v85.333zM938.667 234.667h-128v-128c0-47.147-38.187-85.333-85.333-85.333h-426.667c-47.147 0-85.333 38.187-85.333 85.333v128h-128v341.333c0 47.147 38.187 85.333 85.333 85.333h42.667v85.333c0 47.147 38.187 85.333 85.333 85.333h426.667c47.147 0 85.333-38.187 85.333-85.333v-85.333h42.667c47.147 0 85.333-38.187 85.333-85.333v-341.333zM298.667 661.333h426.667v85.333h-426.667v-85.333zM725.333 362.667h-426.667v-256h426.667v256zM853.333 512c0 35.328-28.672 64-64 64s-64-28.672-64-64 28.672-64 64-64 64 28.672 64 64z" />
<glyph unicode="&#xe972;" glyph-name="gridicons-product-downloadable" d="M938.667 832h-853.333v-256h42.667v-469.333c0-47.147 38.187-85.333 85.333-85.333h597.333c47.147 0 85.333 38.187 85.333 85.333v469.333h42.667v256zM170.667 746.667h682.667v-85.333h-682.667v85.333zM810.667 106.667h-597.333v469.333h597.333v-469.333zM554.667 533.333v-220.587l110.507 110.080 60.16-60.16-213.333-213.333-213.333 213.333 60.16 60.587 110.507-110.507v220.587h85.333z" />
<glyph unicode="&#xe973;" glyph-name="gridicons-product-external" d="M938.667 832h-853.333v-256h42.667v-469.333c0-47.147 38.187-85.333 85.333-85.333h597.333c47.147 0 85.333 38.187 85.333 85.333v469.333h42.667v256zM170.667 746.667h682.667v-85.333h-682.667v85.333zM810.667 106.667h-597.333v469.333h597.333v-469.333zM725.333 490.667v-256h-85.333v110.507l-140.373-140.373-60.16 60.16 140.373 140.373h-110.507v85.333h256z" />
<glyph unicode="&#xe974;" glyph-name="gridicons-product-virtual" d="M938.667 832h-853.333v-256h42.667v-469.333c0-47.147 38.187-85.333 85.333-85.333h597.333c47.147 0 85.333 38.187 85.333 85.333v469.333h42.667v256zM170.667 746.667h682.667v-85.333h-682.667v85.333zM810.667 106.667h-597.333v469.333h597.333v-469.333zM298.667 258.133c0 42.88 34.773 77.653 77.653 77.653h3.84c-14.293 67.797 29.056 134.315 96.853 148.608s134.315-29.056 148.608-96.853c0.853-4.139 1.536-8.32 1.963-12.501v0c53.461 1.067 97.707-41.429 98.773-94.891 0.725-37.035-19.712-71.253-52.693-88.149h-337.877c-23.083 14.037-37.163 39.125-37.12 66.133z" />
<glyph unicode="&#xe975;" glyph-name="gridicons-product" d="M938.667 832h-853.333v-256h42.667v-469.333c0-47.147 38.187-85.333 85.333-85.333h597.333c47.147 0 85.333 38.187 85.333 85.333v469.333h42.667v256zM170.667 746.667h682.667v-85.333h-682.667v85.333zM810.667 106.667h-597.333v469.333h597.333v-469.333zM384 490.667h256c0-47.147-38.187-85.333-85.333-85.333h-85.333c-47.147 0-85.333 38.187-85.333 85.333z" />
<glyph unicode="&#xe976;" glyph-name="gridicons-quote" d="M477.525 287.701c0 37.547-9.813 69.035-29.44 94.592-13.909 17.579-32.768 29.141-56.619 34.645-23.467 5.461-45.653 5.845-65.707 1.195-6.827 40.533 4.267 83.456 32.427 128.939 28.16 45.44 64.64 79.659 109.141 102.528l-67.456 97.067c-34.133-16.896-66.56-38.315-96.427-64.213-30.293-25.899-57.173-55.68-81.067-89.344s-41.813-71.68-53.333-114.773-14.72-87.040-9.216-132.267c7.168-59.733 26.453-107.52 57.856-142.933 31.36-35.883 70.485-53.803 117.248-53.803 41.173 0 75.349 12.373 102.4 37.461 26.795 24.576 40.107 58.24 40.107 101.035l0.085-0.128zM866.816 287.701c0 37.547-9.813 69.035-29.44 94.592-13.909 17.92-32.853 29.525-56.619 34.859-23.893 5.291-45.781 5.547-65.707 0.939-6.827 40.107 3.84 83.2 32.085 128.853 28.16 45.227 64.555 79.36 109.056 102.4l-67.285 97.323c-34.133-16.896-66.347-38.315-96.427-64.213-30.208-25.899-57.173-55.68-80.811-89.344-23.723-33.707-41.387-71.68-52.907-114.773-11.648-42.752-14.72-87.040-9.259-132.267 7.083-59.733 26.283-107.52 57.6-142.933 31.275-35.584 70.272-53.419 117.035-53.419 41.259 0 75.435 12.373 102.485 37.419 26.752 24.576 40.192 58.24 40.192 101.035v-0.469z" />
<glyph unicode="&#xe977;" glyph-name="gridicons-read-more" d="M128 746.667h768v-170.667h-768v170.667zM128 149.333h768v170.667h-768v-170.667zM384 405.333h256v85.333h-256v-85.333zM128 405.333h170.667v85.333h-170.667v-85.333zM725.333 405.333h170.667v85.333h-170.667v-85.333z" />
<glyph unicode="&#xe978;" glyph-name="gridicons-reader-follow" d="M981.333 277.333v-85.333h-128v-128h-85.333v128h-128v85.333h128v128h85.333v-128h128zM853.333 874.667v-384h-170.667v-128h-128v-170.667h-384c-46.933 0-85.333 38.4-85.333 85.333v597.333h768zM341.333 405.333v42.667h-170.667v-42.667h170.667zM469.333 533.333h-298.667v-42.667h298.667v42.667zM469.333 618.667h-298.667v-42.667h298.667v42.667zM768 789.333h-597.333v-85.333h597.333v85.333z" />
<glyph unicode="&#xe979;" glyph-name="gridicons-reader-following" d="M981.333 384.768l-319.659-320.768-149.675 153.6 60.245 59.221 89.856-93.355 260.011 260.011 59.221-58.709zM663.253 305.323l190.080 190.080v379.264h-768v-597.333c0-46.933 38.4-85.333 85.333-85.333h193.621l209.621 206.165 89.344-92.843zM341.333 405.333h-170.667v42.667h170.667v-42.667zM469.333 490.667h-298.667v42.667h298.667v-42.667zM469.333 576h-298.667v42.667h298.667v-42.667zM768 704h-597.333v85.333h597.333v-85.333z" />
<glyph unicode="&#xe97a;" glyph-name="gridicons-reader" d="M128 789.333v-597.333c0-46.933 38.4-85.333 85.333-85.333h597.333c46.933 0 85.333 38.4 85.333 85.333v597.333h-768zM426.667 320h-213.333v42.667h213.333v-42.667zM512 405.333h-298.667v42.667h298.667v-42.667zM512 490.667h-298.667v42.667h298.667v-42.667zM810.667 320h-213.333v213.333h213.333v-213.333zM810.667 618.667h-597.333v85.333h597.333v-85.333z" />
<glyph unicode="&#xe97b;" glyph-name="gridicons-reblog" d="M942.336 537.003l-89.003 89.003v-434.005c0-47.147-38.187-85.333-85.333-85.333h-298.667v85.333h298.667v434.005l-89.003-89.003-60.331 60.331 192 192 192-192-60.331-60.331zM256 269.995v434.005h298.667v85.333h-298.667c-47.147 0-85.333-38.187-85.333-85.333v-434.005l-89.003 89.003-60.331-60.331 192-192 192 192-60.331 60.331-89.003-89.003z" />
<glyph unicode="&#xe97c;" glyph-name="gridicons-redo" d="M768 704v-153.003l-156.032 156.032c-50.005 50.005-115.499 74.965-181.035 74.965s-131.029-24.96-180.992-74.965c-99.968-99.968-99.968-262.059 0-362.027l228.864-228.864 60.331 60.331-228.864 228.864c-66.56 66.56-66.56 174.805 0 241.365 32.213 32.213 75.093 50.005 120.661 50.005s88.448-17.749 120.661-50.005l156.075-156.032h-153.003v-85.333h298.667v298.667h-85.333z" />
<glyph unicode="&#xe97d;" glyph-name="gridicons-refresh" d="M764.16 362.667c-20.395-120.875-125.568-213.333-252.16-213.333-141.141 0-256 114.859-256 256s114.859 256 256 256h92.672l-89.003-89.003 60.331-60.331 192 192-192 192-60.331-60.331 89.003-89.003h-92.672c-188.501 0-341.333-152.832-341.333-341.333s152.832-341.333 341.333-341.333c174.037 0 317.355 130.347 338.389 298.667h-86.229z" />
<glyph unicode="&#xe97e;" glyph-name="gridicons-refund" d="M593.493 835.84l-88.747-89.173h92.587c188.501 0 341.333-152.832 341.333-341.333h-85.333c0 141.397-114.603 256-256 256h-92.587l89.173-89.173-60.587-60.16-192 192 192 192 60.16-60.16zM85.333 448v-426.667h682.667v426.667h-682.667zM170.667 168.107v132.693c25.643 14.891 46.976 36.224 61.867 61.867h388.267c14.891-25.643 36.224-46.976 61.867-61.867v-132.693c-25.301-14.891-46.293-36.053-61.013-61.44h-389.12c-14.933 25.472-36.267 46.677-61.867 61.44zM426.667 149.333c35.328 0 64 38.187 64 85.333s-28.672 85.333-64 85.333-64-38.187-64-85.333 28.672-85.333 64-85.333z" />
<glyph unicode="&#xe97f;" glyph-name="gridicons-reply" d="M597.333 618.667h-306.005l110.336 110.336-60.331 60.331-213.333-213.333 213.333-213.333 60.331 60.331-110.336 110.336h306.005c94.123 0 170.667-76.544 170.667-170.667s-76.544-170.667-170.667-170.667h-85.333v-85.333h85.333c141.397 0 256 114.603 256 256s-114.603 256-256 256z" />
<glyph unicode="&#xe980;" glyph-name="gridicons-rotate" d="M768 362.667v-256c0-47.147-38.187-85.333-85.333-85.333h-426.667c-47.147 0-85.333 38.187-85.333 85.333v256c0 47.147 38.187 85.333 85.333 85.333h426.667c47.147 0 85.333-38.187 85.333-85.333zM593.664 835.669l-89.003-89.003h92.672c188.501 0 341.333-152.832 341.333-341.333h-85.333c0 141.141-114.859 256-256 256h-92.672l89.003-89.003-60.331-60.331-192 192 192 192 60.331-60.331z" />
<glyph unicode="&#xe981;" glyph-name="gridicons-scheduled" d="M447.915 191.957l-158.080 158.080 60.373 60.373 97.877-97.877 225.835 225.835 60.373-60.373-286.379-286.037zM896 704v-554.667c0-47.104-38.229-85.333-85.333-85.333h-597.333c-47.104 0-85.333 38.229-85.333 85.333v554.667c0 47.104 38.229 85.333 85.333 85.333h42.667v85.333h85.333v-85.333h341.333v85.333h85.333v-85.333h42.667c47.104 0 85.333-38.229 85.333-85.333zM810.667 618.667h-597.333v-469.333h597.333v469.333z" />
<glyph unicode="&#xe982;" glyph-name="gridicons-search" d="M896 149.333l-219.904 219.904c31.061 47.104 49.237 103.467 49.237 164.096 0 164.949-133.717 298.667-298.667 298.667s-298.667-133.717-298.667-298.667c0-164.949 133.717-298.667 298.667-298.667 60.629 0 116.992 18.176 164.096 49.237l219.904-219.904 85.333 85.333zM213.333 533.333c0 117.632 95.701 213.333 213.333 213.333s213.333-95.701 213.333-213.333-95.701-213.333-213.333-213.333-213.333 95.701-213.333 213.333z" />
<glyph unicode="&#xe983;" glyph-name="gridicons-share-ios" d="M725.333 618.667h85.333c47.147 0 85.333-38.187 85.333-85.333v-384c0-47.147-38.187-85.333-85.333-85.333h-597.333c-47.147 0-85.333 38.187-85.333 85.333v384c0 47.147 38.187 85.333 85.333 85.333h85.333v-85.333h-85.333v-384h597.333v384h-85.333v85.333zM277.333 725.333l60.331-60.331 131.669 131.669v-434.005h85.333v434.005l131.669-131.669 60.331 60.331-234.667 234.667-234.667-234.667z" />
<glyph unicode="&#xe984;" glyph-name="gridicons-share" d="M768 277.333c-33.621 0-63.957-13.227-86.784-34.432l-301.056 175.232c2.133 9.813 3.84 19.627 3.84 29.867s-1.707 20.053-3.84 29.867l300.8 175.36c23.040-21.333 53.333-34.56 87.040-34.56 70.827 0 128 57.173 128 128s-57.173 128-128 128-128-57.173-128-128c0-10.24 1.707-20.053 3.84-29.867l-300.8-175.36c-23.040 21.333-53.333 34.56-87.040 34.56-70.827 0-128-57.173-128-128s57.173-128 128-128c33.707 0 64 13.227 87.040 34.56l300.715-175.701c-2.261-9.515-3.755-19.328-3.755-29.525 0-70.699 57.301-128 128-128s128 57.301 128 128-57.301 128-128 128z" />
<glyph unicode="&#xe985;" glyph-name="gridicons-shipping" d="M768 618.667h-85.333v42.667c0 47.147-38.187 85.333-85.333 85.333h-426.667c-47.147 0-85.333-38.187-85.333-85.333v-426.667h85.333c0-70.699 57.301-128 128-128s128 57.301 128 128h170.667c0-70.699 57.301-128 128-128s128 57.301 128 128h85.333v213.333l-170.667 170.667zM298.667 170.667c-35.328 0-64 28.672-64 64s28.672 64 64 64 64-28.672 64-64-28.672-64-64-64zM170.667 362.667v298.667h426.667v-298.667h-426.667zM725.333 170.667c-35.328 0-64 28.672-64 64s28.672 64 64 64 64-28.672 64-64-28.672-64-64-64z" />
<glyph unicode="&#xe986;" glyph-name="gridicons-sign-out" d="M682.667 234.667v-85.333c0-47.147-38.187-85.333-85.333-85.333h-384c-47.147 0-85.333 38.187-85.333 85.333v597.333c0 47.147 38.187 85.333 85.333 85.333h384c47.147 0 85.333-38.187 85.333-85.333v-85.333h-85.333v85.333h-384v-597.333h384v85.333h85.333zM789.333 682.667l-60.331-60.331 131.669-131.669h-434.005v-85.333h434.005l-131.669-131.669 60.331-60.331 234.667 234.667-234.667 234.667z" />
<glyph unicode="&#xe987;" glyph-name="gridicons-spam" d="M725.333 874.667h-426.667l-213.333-213.333v-426.667l213.333-213.333h426.667l213.333 213.333v426.667l-213.333 213.333zM554.667 234.667h-85.333v85.333h85.333v-85.333zM554.667 405.333h-85.333l-21.333 256h128l-21.333-256z" />
<glyph unicode="&#xe988;" glyph-name="gridicons-speaker" d="M810.667 618.667v-256c72.533 0 128 55.467 128 128s-55.467 128-128 128zM469.333 661.333h-298.667c-46.933 0-85.333-38.4-85.333-85.333v-170.667c0-46.933 38.4-85.333 85.333-85.333h42.667v-128c0-46.933 38.4-85.333 85.333-85.333h85.333v213.333h85.333l170.667-170.667h85.333v682.667h-85.333l-170.667-170.667z" />
<glyph unicode="&#xe989;" glyph-name="gridicons-special-character" d="M512.213 643.499c-52.779 0-93.483-16.043-122.069-48.128s-42.837-77.312-42.837-135.637c0-59.221 9.643-107.264 28.885-144.128 19.243-36.907 48.427-65.835 87.509-86.869v-122.069h-250.368v113.749h133.077c-44.331 27.136-78.549 64.085-102.571 110.933-24.064 46.805-36.096 99.072-36.096 156.843 0 53.675 12.459 100.821 37.376 141.525 24.96 40.661 60.459 71.936 106.539 93.824s99.584 32.811 160.555 32.811c93.056 0 167.040-24.363 222.037-73.045s82.475-114.048 82.475-196.011c0-57.771-12.075-109.653-36.352-155.733-24.192-46.080-58.88-83.115-104.107-111.104h134.4v-113.792h-252.075v122.069c40.533 20.992 70.443 50.304 89.685 87.936s28.885 85.589 28.885 143.957c0 58.027-14.379 103.040-43.093 134.997-28.715 31.872-69.333 47.872-121.856 47.872z" />
<glyph unicode="&#xe98a;" glyph-name="gridicons-star-outline" d="M512 690.859l64.981-175.061 186.496-7.68-146.389-115.712 11.52-41.045 38.869-138.624-155.477 103.424-155.477-103.381 50.389 179.669-146.432 115.712 186.496 7.68 14.805 39.936 50.219 135.083zM512 874.667l-110.165-296.661-316.501-12.971 248.405-196.352-85.419-304.683 263.68 175.317 263.68-175.317-85.419 304.683 248.405 196.352-316.501 13.013-110.165 296.619z" />
<glyph unicode="&#xe98b;" glyph-name="gridicons-star" d="M512 874.667l110.165-296.661 316.501-12.971-248.405-196.352 85.419-304.683-263.68 175.317-263.68-175.317 85.419 304.683-248.405 196.352 316.501 12.971z" />
<glyph unicode="&#xe98c;" glyph-name="gridicons-stats-alt" d="M896 64h-768v85.333h768v-85.333zM341.333 533.333h-170.667v-298.667h170.667v298.667zM597.333 832h-170.667v-597.333h170.667v597.333zM853.333 704h-170.667v-469.333h170.667v469.333z" />
<glyph unicode="&#xe98d;" glyph-name="gridicons-stats" d="M810.667 832h-597.333c-47.147 0-85.333-38.187-85.333-85.333v-597.333c0-47.147 38.187-85.333 85.333-85.333h597.333c47.147 0 85.333 38.187 85.333 85.333v597.333c0 47.147-38.187 85.333-85.333 85.333zM810.667 149.333h-597.333v597.333h597.333v-597.333zM384 234.667h-85.333v213.333h85.333v-213.333zM554.667 234.667h-85.333v426.667h85.333v-426.667zM725.333 234.667h-85.333v298.667h85.333v-298.667z" />
<glyph unicode="&#xe98e;" glyph-name="gridicons-status" d="M512 789.333c188.203 0 341.333-153.131 341.333-341.333s-153.131-341.333-341.333-341.333-341.333 153.131-341.333 341.333 153.131 341.333 341.333 341.333zM512 874.667c-235.648 0-426.667-191.019-426.667-426.667s191.019-426.667 426.667-426.667 426.667 191.019 426.667 426.667-191.019 426.667-426.667 426.667v0zM322.133 405.333c-0.811-7.083-2.133-14.037-2.133-21.333 0-106.027 85.973-192 192-192s192 85.973 192 192c0 7.296-1.365 14.251-2.133 21.333h-379.733zM426.667 533.333v85.333c0 23.552-19.115 42.667-42.667 42.667v0c-23.552 0-42.667-19.115-42.667-42.667v-85.333c0-23.552 19.115-42.667 42.667-42.667v0c23.552 0 42.667 19.115 42.667 42.667zM682.667 533.333v85.333c0 23.552-19.115 42.667-42.667 42.667v0c-23.552 0-42.667-19.115-42.667-42.667v-85.333c0-23.552 19.115-42.667 42.667-42.667v0c23.552 0 42.667 19.115 42.667 42.667z" />
<glyph unicode="&#xe98f;" glyph-name="gridicons-strikethrough" d="M612.181 448h283.819v-85.333h-196.821c10.197-21.973 15.701-46.677 15.701-74.581 0-56.192-20.224-100.48-60.715-132.864-40.405-32.384-96.683-48.555-168.789-48.555-66.432 0-125.184 12.501-176.299 37.461v122.624c42.027-18.731 77.568-31.957 106.667-39.595 29.099-7.723 55.723-11.52 79.872-11.52 28.971 0 51.2 5.504 66.645 16.64 15.488 11.051 23.253 27.477 23.253 49.408 0 12.16-3.413 23.040-10.24 32.555-6.827 9.472-16.811 18.645-30.037 27.435-7.68 5.12-20.565 12.245-37.547 20.949h-379.691v85.333h484.181zM461.653 533.333c-3.115 3.285-6.101 6.613-8.235 10.027-5.376 8.619-8.064 18.816-8.064 30.421 0 18.731 6.656 33.92 20.011 45.568s32.512 17.451 57.515 17.451c20.992 0 42.368-2.688 64.085-8.107 21.717-5.376 49.195-14.891 82.389-28.544l42.581 102.613c-32.085 13.909-62.805 24.704-92.16 32.341-29.44 7.723-60.288 11.563-92.672 11.563-65.877 0-117.461-15.744-154.795-47.275-37.291-31.488-55.979-74.795-55.979-129.877 0-12.885 1.536-24.747 3.755-36.181h141.568z" />
<glyph unicode="&#xe990;" glyph-name="gridicons-sync" d="M1002.667 384l-192-192-192 192 60.331 60.331 89.003-89.003v92.672c0 141.141-114.859 256-256 256v85.333c188.501 0 341.333-152.832 341.333-341.333v-92.672l89.003 89.003 60.331-60.331zM256 448v92.672l89.003-89.003 60.331 60.331-192 192-192-192 60.331-60.331 89.003 89.003v-92.672c0-188.501 152.832-341.333 341.333-341.333v85.333c-141.141 0-256 114.859-256 256z" />
<glyph unicode="&#xe991;" glyph-name="gridicons-tablet" d="M768 874.667h-512c-47.104 0-85.333-38.229-85.333-85.333v-682.667c0-47.104 38.229-85.333 85.333-85.333h512c47.104 0 85.333 38.229 85.333 85.333v682.667c0 47.104-38.229 85.333-85.333 85.333zM554.667 64h-85.333v42.667h85.333v-42.667zM768 149.333h-512v597.333h512v-597.333z" />
<glyph unicode="&#xe992;" glyph-name="gridicons-tag" d="M853.333 874.368h-302.379c-22.613 0-44.331-9.003-60.331-25.003l-379.989-379.989c-33.323-33.323-33.323-87.339 0-120.661l302.336-302.336c33.323-33.323 87.339-33.323 120.661 0l379.989 379.989c16.043 15.957 25.045 37.675 25.045 60.288v302.379c0 47.147-38.187 85.333-85.333 85.333zM725.632 576c-47.147 0-85.333 38.187-85.333 85.333s38.187 85.333 85.333 85.333 85.333-38.187 85.333-85.333c0-47.147-38.187-85.333-85.333-85.333z" />
<glyph unicode="&#xe993;" glyph-name="gridicons-text-color" d="M128 149.333h768v-128h-768v128zM674.987 234.667h146.091l-223.744 597.333h-170.667l-223.744-597.333h146.133l45.483 149.333h234.923l45.525-149.333zM591.701 490.667h-159.147l79.701 244.267 79.445-244.267z" />
<glyph unicode="&#xe994;" glyph-name="gridicons-themes" d="M170.667 704v0c-47.147 0-85.333-38.187-85.333-85.333v-512c0-46.933 38.4-85.333 85.333-85.333h512c47.147 0 85.333 38.187 85.333 85.333v0h-597.333v597.333zM853.333 874.667h-512c-47.147 0-85.333-38.187-85.333-85.333v-512c0-47.147 38.187-85.333 85.333-85.333h512c47.147 0 85.333 38.187 85.333 85.333v512c0 47.147-38.187 85.333-85.333 85.333zM640 277.333h-298.667v298.667h298.667v-298.667zM853.333 277.333h-128v298.667h128v-298.667zM853.333 661.333h-512v128h512v-128z" />
<glyph unicode="&#xe995;" glyph-name="gridicons-thumbs-up" d="M285.867 21.333h-200.533v384h85.333l115.2-384zM853.291 576h-255.957v170.667c0 70.699-57.301 128-128 128h-42.667v-170.667l-123.733-154.667c-30.379-37.973-46.933-85.163-46.933-133.76v-52.907l89.6-298.667h355.712c78.336 0 146.56 53.291 165.589 129.28l69.163 276.693c13.483 53.845-27.264 106.027-82.773 106.027z" />
<glyph unicode="&#xe996;" glyph-name="gridicons-time" d="M512 789.333c188.203 0 341.333-153.131 341.333-341.333s-153.131-341.333-341.333-341.333-341.333 153.131-341.333 341.333 153.131 341.333 341.333 341.333zM512 874.667c-235.648 0-426.667-191.019-426.667-426.667s191.019-426.667 426.667-426.667 426.667 191.019 426.667 426.667-191.019 426.667-426.667 426.667v0zM674.133 302.933l-119.467 159.275v199.125h-85.333v-227.541l136.533-182.016 68.267 51.157z" />
<glyph unicode="&#xe997;" glyph-name="gridicons-trash" d="M263.979 618.667h496l-29.653-474.667c-2.816-44.971-40.107-80-85.163-80h-266.325c-45.056 0-82.347 35.029-85.163 80l-29.696 474.667zM810.667 746.667v-85.333h-597.333v85.333h128v42.667c0 47.147 38.187 85.333 85.333 85.333h170.667c47.147 0 85.333-38.187 85.333-85.333v-42.667h128zM426.667 746.667h170.667v42.667h-170.667v-42.667z" />
<glyph unicode="&#xe998;" glyph-name="gridicons-trophy" d="M768 744.021v87.979h-512v-87.979h-170.667v-125.355c0-107.733 80.597-196.181 184.491-210.432 29.867-87.808 106.027-154.027 199.509-169.728v-46.507c0-47.147-38.187-85.333-85.333-85.333h-42.667v-85.333h341.333v85.333h-42.667c-47.147 0-85.333 38.187-85.333 85.333v46.507c93.483 15.701 169.643 81.92 199.509 169.728 103.893 14.251 184.491 102.699 184.491 210.432v125.355h-170.667zM170.667 618.667v40.021h85.333v-160.683c-49.664 17.579-85.333 65.024-85.333 120.661zM853.333 618.667c0-55.637-35.669-103.083-85.333-120.704v160.725h85.333v-40.021z" />
<glyph unicode="&#xe999;" glyph-name="gridicons-types" d="M938.667 234.667c0-117.803-95.531-213.333-213.333-213.333s-213.333 95.531-213.333 213.333 95.531 213.333 213.333 213.333 213.333-95.531 213.333-213.333zM277.333 682.667h162.133l-140.8 234.667-256-426.667h234.667v192zM682.667 508.373v110.293h-341.333v-341.333h110.293c18.475 118.741 112.299 212.565 231.040 231.040z" />
<glyph unicode="&#xe99a;" glyph-name="gridicons-underline" d="M170.667 149.333v-85.333h682.667v85.333h-682.667zM768 832v-341.333c0-141.397-114.603-256-256-256s-256 114.603-256 256v341.333h128v-341.333c0-70.571 57.429-128 128-128s128 57.429 128 128v341.333h128z" />
<glyph unicode="&#xe99b;" glyph-name="gridicons-undo" d="M774.059 707.029c-50.005 50.005-115.499 74.965-181.035 74.965s-131.029-25.003-181.035-74.965l-155.989-156.032v153.003h-85.333v-298.667h298.667v85.333h-153.003l156.032 156.032c32.213 32.213 75.093 50.005 120.661 50.005s88.448-17.749 120.661-50.005c66.56-66.56 66.56-174.805 0-241.365l-228.864-228.864 60.331-60.331 228.864 228.864c100.011 99.968 100.011 262.059 0.043 362.027z" />
<glyph unicode="&#xe99c;" glyph-name="gridicons-user-circle" d="M512 874.667c-235.648 0-426.667-191.019-426.667-426.667s191.019-426.667 426.667-426.667 426.667 191.019 426.667 426.667c0 235.648-191.019 426.667-426.667 426.667zM512 85.333c-200.277 0-362.667 162.389-362.667 362.667s162.389 362.667 362.667 362.667 362.667-162.389 362.667-362.667c0-200.277-162.389-362.667-362.667-362.667zM512 426.667c-129.621 0-234.667-73.728-234.667-149.333s105.045-149.333 234.667-149.333 234.667 73.728 234.667 149.333-105.045 149.333-234.667 149.333zM512 448c70.699 0 128 57.301 128 128s-57.301 128-128 128-128-57.301-128-128c0-70.699 57.301-128 128-128z" />
<glyph unicode="&#xe99d;" glyph-name="gridicons-user" d="M512 789.333c94.251 0 170.667-76.416 170.667-170.667s-76.416-170.667-170.667-170.667c-94.251 0-170.667 76.416-170.667 170.667s76.416 170.667 170.667 170.667zM512 106.667c0 0 341.333 0 341.333 85.333 0 102.4-166.4 213.333-341.333 213.333s-341.333-110.933-341.333-213.333c0-85.333 341.333-85.333 341.333-85.333z" />
<glyph unicode="&#xe99e;" glyph-name="gridicons-video-camera" d="M725.333 576v85.333c0 47.147-38.187 85.333-85.333 85.333h-469.333c-47.147 0-85.333-38.187-85.333-85.333v-426.667c0-47.147 38.187-85.333 85.333-85.333h469.333c47.147 0 85.333 38.187 85.333 85.333v85.333l213.333-170.667v597.333l-213.333-170.667z" />
<glyph unicode="&#xe99f;" glyph-name="gridicons-video" d="M853.333 789.333v-85.333h-85.333v85.333h-512v-85.333h-85.333v85.333c-47.147 0-85.333-38.187-85.333-85.333v-512c0-47.147 38.187-85.333 85.333-85.333v85.333h85.333v-85.333h512v85.333h85.333v-85.333c47.147 0 85.333 38.187 85.333 85.333v512c0 47.147-38.187 85.333-85.333 85.333zM256 277.333h-85.333v128h85.333v-128zM256 490.667h-85.333v128h85.333v-128zM426.667 320v256l192-128-192-128zM853.333 277.333h-85.333v128h85.333v-128zM853.333 490.667h-85.333v128h85.333v-128z" />
<glyph unicode="&#xe9a0;" glyph-name="gridicons-visible" d="M512 704c-290.645 0-469.333-256-469.333-256s178.688-256 469.333-256 469.333 256 469.333 256-178.688 256-469.333 256zM512 277.333c-168.235 0-295.509 105.984-357.504 170.667 44.373 46.293 122.112 113.365 224.171 148.011-23.040-29.099-37.333-65.365-37.333-105.344 0-94.251 76.416-170.667 170.667-170.667s170.667 76.416 170.667 170.667c0 39.979-14.293 76.245-37.333 105.344 102.101-34.645 179.883-101.76 224.171-148.011-62.080-64.768-189.312-170.667-357.504-170.667z" />
</font>
</defs>
</svg>
